nColumns=19
nRows=45
DataType=double
version=3
OpenSimVersion=4.1
endheader
time	ground_force_calcn_l_vx	ground_force_calcn_l_vy	ground_force_calcn_l_vz	ground_force_calcn_l_px	ground_force_calcn_l_py	ground_force_calcn_l_pz	ground_force_calcn_l_mx	ground_force_calcn_l_my	ground_force_calcn_l_mz	ground_force_calcn_r_vx	ground_force_calcn_r_vy	ground_force_calcn_r_vz	ground_force_calcn_r_px	ground_force_calcn_r_py	ground_force_calcn_r_pz	ground_force_calcn_r_mx	ground_force_calcn_r_my	ground_force_calcn_r_mz
3.73251	-17.6641	328.927	-12.1943	-0.183315	-2.03115e-17	0.155147	0.174111	-3.24215	0.120196	-8.57939	379.395	12.1722	-0.172292	-1.90945e-17	-0.154541	-0.0813127	3.59578	0.115364
3.74248	-17.53	328.756	-13.0481	-0.183097	-2.02831e-17	0.154999	0.178153	-3.34107	0.132605	-8.52322	378.949	12.7088	-0.172106	-1.90711e-17	-0.154755	-0.0836779	3.72038	0.12477
3.75246	-17.3517	328.676	-13.9476	-0.182877	-2.02539e-17	0.154905	0.18255	-3.45786	0.146737	-8.5168	378.409	13.3575	-0.171985	-1.90543e-17	-0.155051	-0.0866404	3.84951	0.135884
3.76244	-17.1665	328.657	-14.859	-0.182696	-2.02286e-17	0.15485	0.186957	-3.57934	0.161827	-8.56925	377.77	14.1293	-0.171947	-1.90463e-17	-0.155453	-0.0901488	3.97415	0.148641
3.77242	-17.0018	328.678	-15.7727	-0.182579	-2.02103e-17	0.154817	0.191519	-3.70243	0.177673	-8.67674	377.029	15.0134	-0.17201	-1.90491e-17	-0.155971	-0.0939762	4.08353	0.162608
3.7824	-16.8775	328.721	-16.6849	-0.182523	-2.01985e-17	0.154812	0.196755	-3.83217	0.194509	-8.82166	376.172	15.9891	-0.172145	-1.90596e-17	-0.15658	-0.0977733	4.16923	0.177212
3.79238	-16.8006	328.804	-17.625	-0.182523	-2.01925e-17	0.154798	0.202135	-3.95599	0.212054	-8.98922	375.189	17.0205	-0.172337	-1.90765e-17	-0.157255	-0.101287	4.22748	0.19178
3.80236	-16.7519	328.954	-18.6098	-0.1826	-2.0195e-17	0.154786	0.207225	-4.06925	0.230208	-9.17197	374.094	18.0752	-0.172583	-1.90993e-17	-0.157993	-0.104721	4.27123	0.206373
3.81234	-16.7135	329.154	-19.6424	-0.182799	-2.02106e-17	0.154791	0.212181	-4.17868	0.249364	-9.35133	372.883	19.1541	-0.172875	-1.9127e-17	-0.158774	-0.108246	4.31629	0.221717
3.82232	-16.6711	329.351	-20.7191	-0.183108	-2.0238e-17	0.15481	0.217253	-4.29201	0.270006	-9.49037	371.567	20.2613	-0.173193	-1.91573e-17	-0.159558	-0.111394	4.36128	0.237818
3.8323	-16.6172	329.505	-21.8246	-0.183517	-2.02759e-17	0.154854	0.222764	-4.41723	0.292573	-9.55161	370.244	21.3951	-0.17351	-1.91868e-17	-0.160337	-0.114125	4.42376	0.255634
3.84228	-16.5378	329.585	-22.9526	-0.184012	-2.03225e-17	0.154945	0.228625	-4.55632	0.317307	-9.51607	369.058	22.5684	-0.173795	-1.9212e-17	-0.161126	-0.116407	4.51458	0.276073
3.85226	-16.4372	329.56	-24.1111	-0.184565	-2.03747e-17	0.155061	0.234876	-4.70918	0.34453	-9.37125	368.148	23.8012	-0.174053	-1.92333e-17	-0.161917	-0.118039	4.63716	0.299798
3.86224	-16.3191	329.407	-25.2923	-0.18515	-2.04293e-17	0.155195	0.242138	-4.88764	0.375279	-9.12452	367.623	25.1015	-0.174295	-1.9252e-17	-0.162696	-0.118758	4.78471	0.326703
3.87222	-16.1914	329.145	-26.5047	-0.185781	-2.04877e-17	0.15533	0.250258	-5.08735	0.409663	-8.80013	367.585	26.48	-0.174516	-1.92676e-17	-0.163464	-0.118369	4.9443	0.356177
3.8822	-16.049	328.812	-27.7372	-0.186445	-2.05486e-17	0.155466	0.258672	-5.29966	0.447057	-8.43466	368.092	27.9319	-0.174712	-1.928e-17	-0.164222	-0.117121	5.11122	0.387854
3.89218	-15.8819	328.441	-28.991	-0.187132	-2.06109e-17	0.155613	0.267373	-5.52933	0.488065	-8.06783	369.123	29.4435	-0.174878	-1.92886e-17	-0.164965	-0.115481	5.28355	0.421448
3.90216	-15.6888	328.09	-30.2704	-0.18785	-2.06752e-17	0.155777	0.276124	-5.77439	0.532759	-7.72231	370.583	30.9878	-0.175003	-1.92927e-17	-0.165684	-0.113637	5.45329	0.455998
3.91214	-15.4403	327.812	-31.5578	-0.188618	-2.07439e-17	0.155997	0.284448	-6.03912	0.581373	-7.42196	372.321	32.5442	-0.175085	-1.92919e-17	-0.166373	-0.111945	5.61571	0.490864
3.92212	-15.1118	327.586	-32.8421	-0.189437	-2.08173e-17	0.156273	0.291157	-6.31156	0.632765	-7.18731	374.134	34.0792	-0.17516	-1.92908e-17	-0.167034	-0.110801	5.76775	0.525374
3.9321	-14.6916	327.329	-34.1068	-0.190306	-2.08956e-17	0.15659	0.295528	-6.58437	0.686075	-7.03383	375.798	35.5666	-0.175242	-1.92906e-17	-0.167663	-0.110542	5.90596	0.558957
3.94208	-14.2098	326.984	-35.3272	-0.191266	-2.09833e-17	0.156918	0.297976	-6.8568	0.740805	-6.96617	377.163	36.993	-0.17533	-1.92916e-17	-0.168262	-0.111241	6.02284	0.590734
3.95206	-13.6928	326.598	-36.4768	-0.192298	-2.10789e-17	0.157262	0.298702	-7.12459	0.795726	-6.97391	378.183	38.3625	-0.17545	-1.92969e-17	-0.168847	-0.112684	6.11064	0.619856
3.96204	-13.1626	326.243	-37.5448	-0.19333	-2.11753e-17	0.1576	0.297356	-7.37016	0.848175	-7.01852	378.863	39.6617	-0.175632	-1.93095e-17	-0.169406	-0.114466	6.17893	0.646848
3.97202	-12.6486	325.958	-38.5313	-0.194293	-2.12656e-17	0.157893	0.294185	-7.58123	0.896171	-7.05253	379.241	40.8717	-0.175877	-1.93298e-17	-0.169901	-0.115864	6.23044	0.67147
3.982	-12.1968	325.771	-39.4293	-0.195148	-2.13459e-17	0.158118	0.29038	-7.75594	0.938731	-7.03557	379.415	41.9772	-0.176164	-1.93553e-17	-0.170312	-0.116233	6.26823	0.693496
3.99198	-11.8685	325.735	-40.2261	-0.195891	-2.14161e-17	0.158266	0.287575	-7.89262	0.974685	-6.94836	379.482	42.9786	-0.176491	-1.93861e-17	-0.17064	-0.11508	6.28507	0.711822
4.00196	-11.6934	325.94	-40.917	-0.196521	-2.1477e-17	0.158336	0.286259	-7.97912	1.00166	-6.79651	379.458	43.8651	-0.176861	-1.94235e-17	-0.170869	-0.112289	6.26923	0.724718
4.01194	-11.6074	326.429	-41.506	-0.197047	-2.15295e-17	0.158399	0.285389	-8.02584	1.0205	-6.5978	379.336	44.6275	-0.177246	-1.94641e-17	-0.171	-0.108142	6.21756	0.731473
4.02192	-11.5155	327.188	-42.029	-0.197546	-2.1582e-17	0.158496	0.282642	-8.0307	1.03159	-6.37086	379.125	45.2515	-0.177628	-1.95064e-17	-0.171062	-0.10304	6.13186	0.731883
4.0319	-11.3402	328.173	-42.4913	-0.198145	-2.16484e-17	0.158657	0.276217	-7.99342	1.03497	-6.13274	378.821	45.7467	-0.178022	-1.95518e-17	-0.171067	-0.0972875	6.00948	0.725709
4.04188	-11.0549	329.324	-42.891	-0.198907	-2.17348e-17	0.158904	0.266243	-7.93133	1.03297	-5.88109	378.417	46.1032	-0.178468	-1.96048e-17	-0.171005	-0.0909313	5.85095	0.712831
4.05186	-10.6634	330.549	-43.2271	-0.19983	-2.18405e-17	0.159231	0.253442	-7.85629	1.0274	-5.5992	377.866	46.3079	-0.179002	-1.96696e-17	-0.17088	-0.0837757	5.65366	0.692862
4.06184	-10.174	331.736	-43.4691	-0.200842	-2.19576e-17	0.159598	0.238016	-7.76082	1.01694	-5.27225	377.086	46.3145	-0.179595	-1.97429e-17	-0.170701	-0.0758782	5.42703	0.666558
4.07182	-9.63385	332.715	-43.5673	-0.201887	-2.20803e-17	0.159953	0.221106	-7.63613	0.999912	-4.91459	375.929	46.0817	-0.180256	-1.98251e-17	-0.170464	-0.0676744	5.17658	0.63455
4.0818	-9.11447	333.287	-43.4742	-0.202946	-2.22062e-17	0.160262	0.204759	-7.48737	0.976659	-4.54827	374.254	45.5977	-0.18102	-1.99204e-17	-0.170151	-0.0594918	4.89526	0.596421
4.09178	-8.67011	333.266	-43.1272	-0.204012	-2.23346e-17	0.160518	0.190226	-7.312	0.94623	-4.19782	371.993	44.8662	-0.181891	-2.0029e-17	-0.169757	-0.0517194	4.58315	0.552775
4.10176	-8.34575	332.489	-42.4948	-0.205081	-2.24654e-17	0.160723	0.178349	-7.10529	0.908116	-3.91573	369.153	43.8707	-0.182853	-2.01489e-17	-0.169314	-0.0450658	4.24855	0.504904
4.11174	-8.15514	330.848	-41.5789	-0.20615	-2.25979e-17	0.160856	0.169104	-6.86041	0.862175	-3.74325	365.748	42.5876	-0.183885	-2.02775e-17	-0.168837	-0.0399207	3.9006	0.454185
4.12172	-8.05494	328.317	-40.3869	-0.20721	-2.27309e-17	0.160967	0.161591	-6.5864	0.810205	-3.7073	361.786	41.0188	-0.185043	-2.04207e-17	-0.168333	-0.0362741	3.5399	0.401349
4.1317	-7.98675	324.944	-38.9127	-0.208335	-2.2873e-17	0.161111	0.154274	-6.27667	0.751646	-3.78676	357.323	39.2	-0.186388	-2.05855e-17	-0.167814	-0.0335045	3.16153	0.346835
4.14168	-7.87708	320.75	-37.1689	-0.209631	-2.30357e-17	0.161358	0.145743	-5.93455	0.687703	-3.93647	352.454	37.1836	-0.18798	-2.07777e-17	-0.167307	-0.0310183	2.77724	0.292997
4.15166	-7.66972	315.753	-35.1991	-0.21115	-2.32245e-17	0.16173	0.134971	-5.5566	0.619431	-4.07015	347.266	35.0183	-0.189862	-2.10017e-17	-0.166804	-0.028096	2.39715	0.241729
4.16164	-7.34051	309.99	-33.046	-0.212902	-2.34405e-17	0.16224	0.121787	-5.14306	0.548267	-4.10412	341.808	32.7665	-0.192084	-2.12621e-17	-0.166305	-0.024477	2.03855	0.19542
4.17162	-6.89427	303.541	-30.7532	-0.214869	-2.3681e-17	0.162895	0.106811	-4.70268	0.47645	-3.99931	336.14	30.5067	-0.194623	-2.15559e-17	-0.165832	-0.0204608	1.71972	0.156075
